STARTFONT 2.1
COMMENT $XConsortium: lubI18.bdf,v 1.9 94/04/02 16:10:41 gildea Exp $
COMMENT  (c) Copyright Bigelow & Holmes 1986, 1985. Lucida is a registered
COMMENT  trademark of Bigelow & Holmes. See LEGAL NOTICE file for terms 
COMMENT  of the license. 
COMMENT  
COMMENT  Translation to ISO8859-2 by Cub Soft;  Petr.Kolar@vslib.cz
COMMENT  
FONT -B&H-LucidaBright-Medium-I-Normal--18-180-75-75-P-102-ISO8859-2
SIZE 18 72 72
FONTBOUNDINGBOX 29 21 -9 -4
STARTPROPERTIES 20
COMMENT Begin LogicalFontDescription
FONTNAME_REGISTRY ""
FOUNDRY "B&H"
FAMILY_NAME "LucidaBright"
WEIGHT_NAME "Medium"
SLANT "I"
SETWIDTH_NAME "Normal"
ADD_STYLE_NAME ""
PIXEL_SIZE 18
POINT_SIZE 180
RESOLUTION_X 75
RESOLUTION_Y 75
SPACING "P"
AVERAGE_WIDTH 102
CHARSET_REGISTRY "ISO8859"
CHARSET_ENCODING "2"
COMMENT END LogicalFontDescription
FONT_ASCENT 16
FONT_DESCENT 4
DEFAULT_CHAR 0
COPYRIGHT "Copyright Bigelow & Holmes 1986, 1985., Copyright 1996 Cub Soft"
FACE_NAME "Lucida Bright Italic"
ENDPROPERTIES
CHARS 191
STARTCHAR space
ENCODING 32
SWIDTH 333 0
DWIDTH 5 0
BBX 1 1 0 0
BITMAP
00
ENDCHAR
STARTCHAR exclam
ENCODING 33
SWIDTH 265 0
DWIDTH 5 0
BBX 4 13 2 0
BITMAP
30
30
30
20
20
20
40
40
40
40
00
00
c0
ENDCHAR
STARTCHAR quotedbl
ENCODING 34
SWIDTH 377 0
DWIDTH 7 0
BBX 5 4 3 9
BITMAP
d8
d0
90
90
ENDCHAR
STARTCHAR numbersign
ENCODING 35
SWIDTH 608 0
DWIDTH 11 0
BBX 11 13 1 0
BITMAP
0220
0240
0440
0480
7fe0
0900
1100
1200
ffc0
2400
4400
4800
8800
ENDCHAR
STARTCHAR dollar
ENCODING 36
SWIDTH 608 0
DWIDTH 11 0
BBX 9 15 3 -1
BITMAP
0400
1f80
3580
6900
6800
6800
3800
1c00
1e00
1300
1300
9200
9400
f800
2000
ENDCHAR
STARTCHAR percent
ENCODING 37
SWIDTH 759 0
DWIDTH 14 0
BBX 13 13 2 0
BITMAP
3c18
2420
4460
44c0
4c80
3900
02e0
0590
0910
1310
2330
6120
c1c0
ENDCHAR
STARTCHAR ampersand
ENCODING 38
SWIDTH 727 0
DWIDTH 13 0
BBX 13 13 1 0
BITMAP
0380
04c0
0cc0
0cc0
0d80
1e00
64f8
c620
c220
c340
c1c0
6180
3ee0
ENDCHAR
STARTCHAR apostrophe
ENCODING 39
SWIDTH 265 0
DWIDTH 5 0
BBX 3 5 3 8
BITMAP
60
60
60
40
c0
ENDCHAR
STARTCHAR parenleft
ENCODING 40
SWIDTH 310 0
DWIDTH 6 0
BBX 6 16 2 -3
BITMAP
04
08
10
20
20
60
40
c0
c0
c0
c0
c0
80
40
40
20
ENDCHAR
STARTCHAR parenright
ENCODING 41
SWIDTH 310 0
DWIDTH 6 0
BBX 6 16 0 -3
BITMAP
10
08
08
0c
0c
0c
0c
0c
0c
08
18
10
10
20
40
80
ENDCHAR
STARTCHAR asterisk
ENCODING 42
SWIDTH 458 0
DWIDTH 8 0
BBX 7 7 3 6
BITMAP
18
10
d6
2c
30
c8
48
ENDCHAR
STARTCHAR plus
ENCODING 43
SWIDTH 608 0
DWIDTH 11 0
BBX 11 11 1 0
BITMAP
0200
0200
0400
0400
0400
ffe0
0400
0800
0800
0800
0800
ENDCHAR
STARTCHAR comma
ENCODING 44
SWIDTH 265 0
DWIDTH 5 0
BBX 3 5 1 -3
BITMAP
60
60
60
40
c0
ENDCHAR
STARTCHAR minus
ENCODING 45
SWIDTH 608 0
DWIDTH 11 0
BBX 11 1 1 5
BITMAP
ffe0
ENDCHAR
STARTCHAR period
ENCODING 46
SWIDTH 265 0
DWIDTH 5 0
BBX 3 2 1 0
BITMAP
e0
e0
ENDCHAR
STARTCHAR slash
ENCODING 47
SWIDTH 458 0
DWIDTH 8 0
BBX 11 16 0 -3
BITMAP
0020
0040
0080
0080
0100
0300
0200
0400
0400
0800
1800
1000
2000
2000
4000
8000
ENDCHAR
STARTCHAR zero
ENCODING 48
SWIDTH 608 0
DWIDTH 11 0
BBX 10 13 2 0
BITMAP
0f00
1980
3080
60c0
60c0
c0c0
c080
c180
c180
c100
c300
6600
3c00
ENDCHAR
STARTCHAR one
ENCODING 49
SWIDTH 608 0
DWIDTH 11 0
BBX 7 13 2 0
BITMAP
1e
06
04
04
0c
0c
0c
08
18
18
18
18
fe
ENDCHAR
STARTCHAR two
ENCODING 50
SWIDTH 608 0
DWIDTH 11 0
BBX 10 13 2 0
BITMAP
0f80
11c0
20c0
00c0
00c0
0180
0300
0400
1800
2000
6000
4000
ff00
ENDCHAR
STARTCHAR three
ENCODING 51
SWIDTH 608 0
DWIDTH 11 0
BBX 9 13 2 0
BITMAP
1f00
1180
2180
0180
0180
0300
3c00
0200
0300
0300
8300
8600
fc00
ENDCHAR
STARTCHAR four
ENCODING 52
SWIDTH 608 0
DWIDTH 11 0
BBX 9 13 1 0
BITMAP
0080
0380
0500
0900
1300
2300
2300
4200
ff80
0600
0600
0600
1f00
ENDCHAR
STARTCHAR five
ENCODING 53
SWIDTH 608 0
DWIDTH 11 0
BBX 10 13 2 0
BITMAP
1fc0
2000
2000
2000
3c00
0600
0300
0300
0300
0300
8300
8600
f800
ENDCHAR
STARTCHAR six
ENCODING 54
SWIDTH 608 0
DWIDTH 11 0
BBX 10 13 2 0
BITMAP
0780
18c0
3080
6000
6000
7f00
e300
c180
c180
c180
c300
6600
3c00
ENDCHAR
STARTCHAR seven
ENCODING 55
SWIDTH 608 0
DWIDTH 11 0
BBX 10 13 3 0
BITMAP
7fc0
0080
0080
0100
0200
0400
0800
1000
3000
2000
6000
c000
c000
ENDCHAR
STARTCHAR eight
ENCODING 56
SWIDTH 608 0
DWIDTH 11 0
BBX 9 13 2 0
BITMAP
0f00
1180
3180
2180
3100
1e00
3e00
4700
c300
c300
c300
c600
7c00
ENDCHAR
STARTCHAR nine
ENCODING 57
SWIDTH 608 0
DWIDTH 11 0
BBX 10 13 2 0
BITMAP
0f00
1180
2080
60c0
60c0
60c0
6180
3f80
0180
0300
8300
8600
7800
ENDCHAR
STARTCHAR colon
ENCODING 58
SWIDTH 265 0
DWIDTH 5 0
BBX 4 9 1 0
BITMAP
30
70
00
00
00
00
00
e0
c0
ENDCHAR
STARTCHAR semicolon
ENCODING 59
SWIDTH 265 0
DWIDTH 5 0
BBX 5 12 1 -3
BITMAP
18
38
00
00
00
00
00
60
60
60
60
c0
ENDCHAR
STARTCHAR less
ENCODING 60
SWIDTH 608 0
DWIDTH 11 0
BBX 11 11 2 0
BITMAP
0020
00c0
0300
0c00
3000
c000
3000
1800
0600
0100
0080
ENDCHAR
STARTCHAR equal
ENCODING 61
SWIDTH 608 0
DWIDTH 11 0
BBX 11 4 1 3
BITMAP
7fe0
0000
0000
ffc0
ENDCHAR
STARTCHAR greater
ENCODING 62
SWIDTH 608 0
DWIDTH 11 0
BBX 11 11 0 0
BITMAP
2000
1000
0c00
0300
0180
0060
0180
0600
1800
6000
8000
ENDCHAR
STARTCHAR question
ENCODING 63
SWIDTH 471 0
DWIDTH 8 0
BBX 7 13 3 0
BITMAP
7c
c6
86
06
04
08
10
20
60
40
00
00
c0
ENDCHAR
STARTCHAR at
ENCODING 64
SWIDTH 861 0
DWIDTH 16 0
BBX 14 13 2 0
BITMAP
03e0
0c18
3004
23e4
4444
8844
88c4
88c4
89c8
8e70
4000
2080
1f00
ENDCHAR
STARTCHAR A
ENCODING 65
SWIDTH 747 0
DWIDTH 13 0
BBX 13 13 0 0
BITMAP
00c0
00c0
01c0
03c0
02c0
0460
0c60
0860
1fe0
1060
2020
4030
f0f8
ENDCHAR
STARTCHAR B
ENCODING 66
SWIDTH 606 0
DWIDTH 11 0
BBX 11 13 0 0
BITMAP
3fc0
0c60
0c60
0860
1840
1880
1f00
19c0
10c0
30c0
30c0
31c0
ff00
ENDCHAR
STARTCHAR C
ENCODING 67
SWIDTH 714 0
DWIDTH 13 0
BBX 12 13 2 0
BITMAP
07f0
1c30
3030
3000
6000
6000
c000
c000
c000
c000
e000
70c0
3f00
ENDCHAR
STARTCHAR D
ENCODING 68
SWIDTH 770 0
DWIDTH 14 0
BBX 14 13 0 0
BITMAP
3ff0
0c38
0c1c
080c
180c
180c
180c
180c
3018
3018
3030
30e0
ff80
ENDCHAR
STARTCHAR E
ENCODING 69
SWIDTH 569 0
DWIDTH 10 0
BBX 11 13 1 0
BITMAP
3fe0
1820
1820
1800
1800
1880
1f80
3100
3000
3000
3080
3080
ff80
ENDCHAR
STARTCHAR F
ENCODING 70
SWIDTH 551 0
DWIDTH 10 0
BBX 11 13 1 0
BITMAP
3fe0
1820
1820
1800
1800
1880
1f80
3100
3000
3000
3000
3000
f800
ENDCHAR
STARTCHAR G
ENCODING 71
SWIDTH 756 0
DWIDTH 14 0
BBX 12 13 2 0
BITMAP
07f0
1c30
3020
3000
6000
4000
c000
c1f0
c0c0
c0c0
e0c0
70c0
3f00
ENDCHAR
STARTCHAR H
ENCODING 72
SWIDTH 776 0
DWIDTH 14 0
BBX 16 13 0 0
BITMAP
1f1f
0c0c
0c0c
080c
1808
1818
1ff8
1818
1018
3010
3030
3030
f8f8
ENDCHAR
STARTCHAR I
ENCODING 73
SWIDTH 325 0
DWIDTH 6 0
BBX 8 13 0 0
BITMAP
1f
0c
0c
0c
08
18
18
18
10
30
30
30
f8
ENDCHAR
STARTCHAR J
ENCODING 74
SWIDTH 422 0
DWIDTH 8 0
BBX 10 16 0 -3
BITMAP
07c0
0380
0300
0300
0300
0200
0600
0600
0600
0600
0400
0c00
0c00
cc00
9800
f000
ENDCHAR
STARTCHAR K
ENCODING 75
SWIDTH 698 0
DWIDTH 13 0
BBX 14 13 0 0
BITMAP
1f3c
0c18
0c20
0cc0
1980
1a00
1e00
1b00
1380
31c0
30c0
3060
f9f0
ENDCHAR
STARTCHAR L
ENCODING 76
SWIDTH 572 0
DWIDTH 10 0
BBX 10 13 0 0
BITMAP
3f00
0c00
0c00
0800
1800
1800
1800
1800
3000
3000
3040
30c0
ffc0
ENDCHAR
STARTCHAR M
ENCODING 77
SWIDTH 865 0
DWIDTH 16 0
BBX 17 13 1 0
BITMAP
3c0780
0c0600
0c0e00
161e00
161600
162400
126c00
134c00
238c00
238800
210800
201800
f03e00
ENDCHAR
STARTCHAR N
ENCODING 78
SWIDTH 762 0
DWIDTH 14 0
BBX 16 13 0 0
BITMAP
3c1f
0c04
0e04
1608
1308
1308
1188
10c8
20d0
2070
2070
2030
f020
ENDCHAR
STARTCHAR O
ENCODING 79
SWIDTH 783 0
DWIDTH 14 0
BBX 13 13 2 0
BITMAP
07c0
0c70
3030
2018
6018
4018
c018
c030
c030
c060
c0c0
6180
3e00
ENDCHAR
STARTCHAR P
ENCODING 80
SWIDTH 579 0
DWIDTH 10 0
BBX 12 13 0 0
BITMAP
1fe0
0c30
0c30
0c30
1830
1860
18c0
1f80
1800
3000
3000
3000
fc00
ENDCHAR
STARTCHAR Q
ENCODING 81
SWIDTH 788 0
DWIDTH 14 0
BBX 14 16 2 -3
BITMAP
07c0
0c70
3030
2018
6018
4018
c010
c030
c030
c060
c0e0
61c0
3f00
0300
0080
007c
ENDCHAR
STARTCHAR R
ENCODING 82
SWIDTH 686 0
DWIDTH 12 0
BBX 12 13 0 0
BITMAP
1fe0
0c60
0c30
0820
1860
18c0
1f00
1b00
1180
3180
30c0
30e0
f870
ENDCHAR
STARTCHAR S
ENCODING 83
SWIDTH 549 0
DWIDTH 10 0
BBX 10 13 1 0
BITMAP
0f80
18c0
3040
3040
3800
1c00
0e00
0300
0180
8180
8180
c300
7c00
ENDCHAR
STARTCHAR T
ENCODING 84
SWIDTH 663 0
DWIDTH 12 0
BBX 12 13 2 0
BITMAP
fff0
c610
8610
0400
0c00
0c00
0c00
0c00
0800
1800
1800
1800
7e00
ENDCHAR
STARTCHAR U
ENCODING 85
SWIDTH 727 0
DWIDTH 13 0
BBX 13 13 3 0
BITMAP
f878
7020
6020
6020
6040
6040
4040
c040
c040
c080
c080
6100
3e00
ENDCHAR
STARTCHAR V
ENCODING 86
SWIDTH 656 0
DWIDTH 12 0
BBX 13 13 2 0
BITMAP
f838
6010
6020
2060
3040
3080
3180
3100
1200
1a00
1c00
1800
1800
ENDCHAR
STARTCHAR W
ENCODING 87
SWIDTH 878 0
DWIDTH 16 0
BBX 17 13 2 0
BITMAP
f88780
608300
61c200
61c400
62c400
62c800
64c800
24d000
28d000
28e000
30e000
30c000
204000
ENDCHAR
STARTCHAR X
ENCODING 88
SWIDTH 624 0
DWIDTH 11 0
BBX 14 13 0 0
BITMAP
1f1c
0c18
0630
0660
02c0
0380
0380
0380
0d80
08c0
10c0
2060
f1f0
ENDCHAR
STARTCHAR Y
ENCODING 89
SWIDTH 663 0
DWIDTH 12 0
BBX 12 13 2 0
BITMAP
f870
6060
3040
3080
1900
1a00
1c00
0800
1800
1800
1800
3800
7c00
ENDCHAR
STARTCHAR Z
ENCODING 90
SWIDTH 633 0
DWIDTH 11 0
BBX 12 13 1 0
BITMAP
1ff0
1060
30c0
01c0
0180
0300
0600
0c00
1800
3800
3040
6040
ffc0
ENDCHAR
STARTCHAR bracketleft
ENCODING 91
SWIDTH 310 0
DWIDTH 6 0
BBX 7 16 1 -3
BITMAP
1e
18
18
10
30
30
30
20
20
60
60
40
40
40
c0
f0
ENDCHAR
STARTCHAR backslash
ENCODING 92
SWIDTH 458 0
DWIDTH 8 0
BBX 5 16 3 -3
BITMAP
80
80
40
40
40
40
20
20
20
20
10
10
10
10
08
08
ENDCHAR
STARTCHAR bracketright
ENCODING 93
SWIDTH 310 0
DWIDTH 6 0
BBX 7 16 0 -3
BITMAP
1e
06
04
04
04
0c
0c
08
08
18
18
18
10
30
30
f0
ENDCHAR
STARTCHAR asciicircum
ENCODING 94
SWIDTH 608 0
DWIDTH 11 0
BBX 11 11 0 2
BITMAP
0100
0100
0300
0480
0480
0880
10c0
3040
2040
4040
c020
ENDCHAR
STARTCHAR underscore
ENCODING 95
SWIDTH 500 0
DWIDTH 9 0
BBX 7 1 1 -1
BITMAP
fe
ENDCHAR
STARTCHAR grave
ENCODING 96
SWIDTH 560 0
DWIDTH 10 0
BBX 3 3 6 10
BITMAP
c0
40
20
ENDCHAR
STARTCHAR a
ENCODING 97
SWIDTH 608 0
DWIDTH 11 0
BBX 10 9 1 0
BITMAP
0fc0
10c0
2080
6180
4180
c380
c580
c900
73c0
ENDCHAR
STARTCHAR b
ENCODING 98
SWIDTH 596 0
DWIDTH 11 0
BBX 10 13 1 0
BITMAP
7800
1000
3000
3000
3380
24c0
28c0
70c0
6080
6180
4100
c200
fc00
ENDCHAR
STARTCHAR c
ENCODING 99
SWIDTH 487 0
DWIDTH 9 0
BBX 8 9 2 0
BITMAP
0f
31
61
40
c0
c0
c0
c2
7c
ENDCHAR
STARTCHAR d
ENCODING 100
SWIDTH 608 0
DWIDTH 11 0
BBX 11 13 1 0
BITMAP
01e0
0060
0040
00c0
0fc0
10c0
20c0
6080
4180
c380
c580
c900
73c0
ENDCHAR
STARTCHAR e
ENCODING 101
SWIDTH 518 0
DWIDTH 9 0
BBX 8 9 2 0
BITMAP
0e
33
63
42
fc
c0
c1
e6
7c
ENDCHAR
STARTCHAR f
ENCODING 102
SWIDTH 380 0
DWIDTH 7 0
BBX 9 17 1 -3
BITMAP
0780
0880
0880
1800
1000
7e00
3000
3000
3000
2000
6000
6000
6000
6000
4000
c000
c000
ENDCHAR
STARTCHAR g
ENCODING 103
SWIDTH 602 0
DWIDTH 11 0
BBX 10 12 1 -3
BITMAP
07c0
18c0
30c0
2080
6180
6380
6380
6500
7b00
0300
c200
7c00
ENDCHAR
STARTCHAR h
ENCODING 104
SWIDTH 631 0
DWIDTH 11 0
BBX 10 13 2 0
BITMAP
7800
1000
3000
3000
3380
24c0
68c0
7080
6180
6180
4180
c180
c3c0
ENDCHAR
STARTCHAR i
ENCODING 105
SWIDTH 289 0
DWIDTH 5 0
BBX 4 13 2 0
BITMAP
30
00
00
00
e0
60
60
60
40
40
40
c0
e0
ENDCHAR
STARTCHAR j
ENCODING 106
SWIDTH 343 0
DWIDTH 6 0
BBX 9 16 -1 -3
BITMAP
0180
0000
0000
0000
0700
0300
0300
0300
0200
0600
0600
0600
0400
8c00
8800
f000
ENDCHAR
STARTCHAR k
ENCODING 107
SWIDTH 560 0
DWIDTH 10 0
BBX 9 13 2 0
BITMAP
7000
3000
3000
3000
2180
2300
6600
7800
7800
4c00
4e00
c600
c380
ENDCHAR
STARTCHAR l
ENCODING 108
SWIDTH 289 0
DWIDTH 5 0
BBX 5 13 1 0
BITMAP
78
18
10
30
30
30
20
60
60
60
40
c0
f0
ENDCHAR
STARTCHAR m
ENCODING 109
SWIDTH 944 0
DWIDTH 17 0
BBX 15 9 2 0
BITMAP
f39c
2db6
79e6
71c4
618c
410c
430c
c30c
c30e
ENDCHAR
STARTCHAR n
ENCODING 110
SWIDTH 631 0
DWIDTH 11 0
BBX 10 9 2 0
BITMAP
f380
24c0
68c0
7080
6180
6180
4180
c180
c3c0
ENDCHAR
STARTCHAR o
ENCODING 111
SWIDTH 560 0
DWIDTH 10 0
BBX 9 9 2 0
BITMAP
0f00
3380
6180
4180
c180
c300
c300
c600
7800
ENDCHAR
STARTCHAR p
ENCODING 112
SWIDTH 608 0
DWIDTH 11 0
BBX 10 12 1 -3
BITMAP
7380
34c0
38c0
30c0
3080
6180
6100
6200
7c00
4000
c000
c000
ENDCHAR
STARTCHAR q
ENCODING 113
SWIDTH 599 0
DWIDTH 11 0
BBX 10 12 1 -3
BITMAP
0fc0
10c0
2080
6180
4180
c380
c580
c900
7300
0300
0300
0200
ENDCHAR
STARTCHAR r
ENCODING 114
SWIDTH 470 0
DWIDTH 8 0
BBX 8 9 2 0
BITMAP
f3
2e
78
70
60
40
40
c0
c0
ENDCHAR
STARTCHAR s
ENCODING 115
SWIDTH 440 0
DWIDTH 8 0
BBX 8 9 1 0
BITMAP
1f
31
31
38
1c
06
82
c6
7c
ENDCHAR
STARTCHAR t
ENCODING 116
SWIDTH 355 0
DWIDTH 6 0
BBX 6 12 2 0
BITMAP
30
30
30
fc
60
60
60
40
c0
c0
c0
70
ENDCHAR
STARTCHAR u
ENCODING 117
SWIDTH 630 0
DWIDTH 11 0
BBX 10 9 2 0
BITMAP
f3c0
60c0
6080
6180
6180
4380
c580
c900
73c0
ENDCHAR
STARTCHAR v
ENCODING 118
SWIDTH 558 0
DWIDTH 10 0
BBX 10 9 1 0
BITMAP
e0c0
3040
30c0
1080
1900
1a00
1e00
1c00
1800
ENDCHAR
STARTCHAR w
ENCODING 119
SWIDTH 805 0
DWIDTH 14 0
BBX 14 9 1 0
BITMAP
e10c
6184
338c
3388
3690
14f0
18e0
18c0
1080
ENDCHAR
STARTCHAR x
ENCODING 120
SWIDTH 510 0
DWIDTH 9 0
BBX 9 9 1 0
BITMAP
7180
3180
1b00
1c00
0c00
3c00
6600
c700
c380
ENDCHAR
STARTCHAR y
ENCODING 121
SWIDTH 558 0
DWIDTH 10 0
BBX 11 12 0 -3
BITMAP
7060
1820
1860
0840
0c80
0d00
0e00
0c00
0800
1000
3000
e000
ENDCHAR
STARTCHAR z
ENCODING 122
SWIDTH 536 0
DWIDTH 10 0
BBX 9 9 1 0
BITMAP
3f80
2300
2600
0c00
1800
1800
3100
6100
ff00
ENDCHAR
STARTCHAR braceleft
ENCODING 123
SWIDTH 337 0
DWIDTH 6 0
BBX 6 16 2 -3
BITMAP
0c
18
10
30
10
30
30
20
c0
60
60
60
c0
c0
c0
60
ENDCHAR
STARTCHAR bar
ENCODING 124
SWIDTH 241 0
DWIDTH 4 0
BBX 4 16 1 -3
BITMAP
10
10
30
20
20
20
20
60
60
40
40
40
40
c0
80
80
ENDCHAR
STARTCHAR braceright
ENCODING 125
SWIDTH 337 0
DWIDTH 6 0
BBX 6 16 2 -3
BITMAP
18
04
04
0c
08
18
18
0c
10
10
30
30
30
30
20
c0
ENDCHAR
STARTCHAR asciitilde
ENCODING 126
SWIDTH 608 0
DWIDTH 11 0
BBX 11 4 1 3
BITMAP
7820
8c20
8640
83c0
ENDCHAR
STARTCHAR nobreakspace
ENCODING 160
SWIDTH 333 0
DWIDTH 5 0
BBX 1 1 0 0
BITMAP
00
ENDCHAR
STARTCHAR Aogonek
ENCODING 161
SWIDTH 747 0
DWIDTH 13 0
BBX 13 16 0 -3
BITMAP
00c0
00c0
01c0
03c0
02c0
0460
0c60
0860
1fe0
1060
2020
4030
f0f8
0300
0400
0700
ENDCHAR
STARTCHAR breve
ENCODING 162
SWIDTH 560 0
DWIDTH 10 0
BBX 6 3 5 10
BITMAP
84
d8
70
ENDCHAR
STARTCHAR Lstroke
ENCODING 163
SWIDTH 572 0
DWIDTH 10 0
BBX 10 13 0 0
BITMAP
1f00
0c00
0c00
0c00
1a00
1e00
1800
7800
1000
3000
3040
30c0
ffc0
ENDCHAR
STARTCHAR currency
ENCODING 164
SWIDTH 608 0
DWIDTH 11 0
BBX 12 11 1 1
BITMAP
2010
1720
18c0
1040
2040
2040
2040
2080
3180
6ec0
8040
ENDCHAR
STARTCHAR Lcaron
ENCODING 165
SWIDTH 666 0
DWIDTH 12 0
BBX 12 14 0 0
BITMAP
0030
3f30
0c30
0c20
0860
1800
1800
1800
1800
3000
3000
3040
30c0
ffc0
ENDCHAR
STARTCHAR Sacute
ENCODING 166
SWIDTH 549 0
DWIDTH 10 0
BBX 10 17 1 0
BITMAP
00c0
0100
0200
0000
0f80
18c0
3040
3040
3800
1c00
0e00
0300
0180
8180
8180
c300
7c00
ENDCHAR
STARTCHAR section
ENCODING 167
SWIDTH 608 0
DWIDTH 11 0
BBX 10 16 1 -3
BITMAP
0fc0
1840
3040
3000
3800
1e00
2700
6180
6180
3900
1e00
0300
0100
8300
c600
7c00
ENDCHAR
STARTCHAR diaeresis
ENCODING 168
SWIDTH 560 0
DWIDTH 10 0
BBX 5 1 5 12
BITMAP
d8
ENDCHAR
STARTCHAR Scaron
ENCODING 169
SWIDTH 549 0
DWIDTH 10 0
BBX 10 17 1 0
BITMAP
0840
0580
0700
0000
0f80
18c0
3040
3040
3800
1c00
0e00
0300
0180
8180
8180
c300
7c00
ENDCHAR
STARTCHAR Scedilla
ENCODING 170
SWIDTH 549 0
DWIDTH 10 0
BBX 10 16 1 -3
BITMAP
0f80
18c0
3040
3040
3800
1c00
0e00
0300
0180
8180
8180
c300
7c00
0c00
0400
1c00
ENDCHAR
STARTCHAR Tcaron
ENCODING 171
SWIDTH 663 0
DWIDTH 12 0
BBX 12 17 2 0
BITMAP
0840
0580
0700
0000
fff0
c610
8610
0400
0c00
0c00
0c00
0c00
0800
1800
1800
1800
7e00
ENDCHAR
STARTCHAR Zacute
ENCODING 172
SWIDTH 633 0
DWIDTH 11 0
BBX 12 17 1 0
BITMAP
0060
0080
0100
0000
1ff0
1060
30c0
01c0
0180
0300
0600
0c00
1800
3800
3040
6040
ffc0
ENDCHAR
STARTCHAR hyphen
ENCODING 173
SWIDTH 313 0
DWIDTH 6 0
BBX 4 1 2 5
BITMAP
f0
ENDCHAR
STARTCHAR Zcaron
ENCODING 174
SWIDTH 633 0
DWIDTH 11 0
BBX 12 17 1 0
BITMAP
0420
02c0
0380
0000
1ff0
1060
30c0
01c0
0180
0300
0600
0c00
1800
3800
3040
6040
ffc0
ENDCHAR
STARTCHAR Zabovedot
ENCODING 175
SWIDTH 633 0
DWIDTH 11 0
BBX 12 15 1 0
BITMAP
0180
0000
1ff0
1060
30c0
01c0
0180
0300
0600
0c00
1800
3800
3040
6040
ffc0
ENDCHAR
STARTCHAR degree
ENCODING 176
SWIDTH 277 0
DWIDTH 5 0
BBX 3 3 3 10
BITMAP
e0
a0
e0
ENDCHAR
STARTCHAR aogonek
ENCODING 177
SWIDTH 608 0
DWIDTH 11 0
BBX 10 12 1 -3
BITMAP
0fc0
10c0
2080
6180
4180
c380
c580
c900
73c0
0c00
1000
1c00
ENDCHAR
STARTCHAR ogonek
ENCODING 178
SWIDTH 560 0
DWIDTH 10 0
BBX 3 3 3 -3
BITMAP
60
80
e0
ENDCHAR
STARTCHAR lstroke
ENCODING 179
SWIDTH 289 0
DWIDTH 5 0
BBX 6 13 1 0
BITMAP
38
18
18
18
10
3c
f0
30
20
60
60
60
70
ENDCHAR
STARTCHAR acute
ENCODING 180
SWIDTH 560 0
DWIDTH 10 0
BBX 4 3 6 10
BITMAP
30
40
80
ENDCHAR
STARTCHAR lcaron
ENCODING 181
SWIDTH 500 0
DWIDTH 9 0
BBX 9 14 1 0
BITMAP
0180
7980
1980
1100
3300
3000
3000
2000
6000
6000
6000
4000
c000
f000
ENDCHAR
STARTCHAR sacute
ENCODING 182
SWIDTH 440 0
DWIDTH 8 0
BBX 8 13 1 0
BITMAP
03
04
08
00
1f
31
31
38
1c
06
82
c6
7c
ENDCHAR
STARTCHAR caron
ENCODING 183
SWIDTH 560 0
DWIDTH 10 0
BBX 6 3 5 10
BITMAP
84
58
70
ENDCHAR
STARTCHAR cedilla
ENCODING 184
SWIDTH 560 0
DWIDTH 10 0
BBX 3 3 3 -3
BITMAP
60
20
e0
ENDCHAR
STARTCHAR scaron
ENCODING 185
SWIDTH 440 0
DWIDTH 8 0
BBX 8 13 1 0
BITMAP
21
16
1c
00
1f
31
31
38
1c
06
82
c6
7c
ENDCHAR
STARTCHAR scedilla
ENCODING 186
SWIDTH 440 0
DWIDTH 8 0
BBX 8 12 1 -3
BITMAP
1f
31
31
38
1c
06
82
c6
7c
18
08
38
ENDCHAR
STARTCHAR tcaron
ENCODING 187
SWIDTH 444 0
DWIDTH 8 0
BBX 8 15 2 0
BITMAP
03
03
03
32
36
30
fc
60
60
60
40
c0
c0
c0
70
ENDCHAR
STARTCHAR zacute
ENCODING 188
SWIDTH 536 0
DWIDTH 10 0
BBX 9 13 1 0
BITMAP
0180
0200
0400
0000
3f80
2300
2600
0c00
1800
1800
3100
6100
ff00
ENDCHAR
STARTCHAR doubleacute
ENCODING 189
SWIDTH 560 0
DWIDTH 10 0
BBX 6 3 5 10
BITMAP
3c
50
a0
ENDCHAR
STARTCHAR zcaron
ENCODING 190
SWIDTH 536 0
DWIDTH 10 0
BBX 9 13 1 0
BITMAP
1080
0b00
0e00
0000
3f80
2300
2600
0c00
1800
1800
3100
6100
ff00
ENDCHAR
STARTCHAR zabovedot
ENCODING 191
SWIDTH 536 0
DWIDTH 10 0
BBX 9 11 1 0
BITMAP
0600
0000
3f80
2300
2600
0c00
1800
1800
3100
6100
ff00
ENDCHAR
STARTCHAR Racute
ENCODING 192
SWIDTH 686 0
DWIDTH 12 0
BBX 12 17 0 0
BITMAP
0060
0080
0100
0000
1fe0
0c60
0c30
0820
1860
18c0
1f00
1b00
1180
3180
30c0
30e0
f870
ENDCHAR
STARTCHAR Aacute
ENCODING 193
SWIDTH 747 0
DWIDTH 13 0
BBX 13 17 0 0
BITMAP
0030
0040
0080
0000
00c0
00c0
01c0
03c0
02c0
0460
0c60
0860
1fe0
1060
2020
4030
f0f8
ENDCHAR
STARTCHAR Acircumflex
ENCODING 194
SWIDTH 747 0
DWIDTH 13 0
BBX 13 17 0 0
BITMAP
00e0
01a0
0210
0000
00c0
00c0
01c0
03c0
02c0
0460
0c60
0860
1fe0
1060
2020
4030
f0f8
ENDCHAR
STARTCHAR Abreve
ENCODING 195
SWIDTH 747 0
DWIDTH 13 0
BBX 13 17 0 0
BITMAP
0210
0360
01c0
0000
00c0
00c0
01c0
03c0
02c0
0460
0c60
0860
1fe0
1060
2020
4030
f0f8
ENDCHAR
STARTCHAR Adiaeresis
ENCODING 196
SWIDTH 747 0
DWIDTH 13 0
BBX 13 15 0 0
BITMAP
01b0
0000
00c0
00c0
01c0
03c0
02c0
0460
0c60
0860
1fe0
1060
2020
4030
f0f8
ENDCHAR
STARTCHAR Lacute
ENCODING 197
SWIDTH 572 0
DWIDTH 10 0
BBX 10 17 0 0
BITMAP
0180
0200
0400
0000
3f00
0c00
0c00
0800
1800
1800
1800
1800
3000
3000
3040
30c0
ffc0
ENDCHAR
STARTCHAR Cacute
ENCODING 198
SWIDTH 714 0
DWIDTH 13 0
BBX 12 17 2 0
BITMAP
0060
0080
0100
0000
07f0
1c30
3030
3000
6000
6000
c000
c000
c000
c000
e000
70c0
3f00
ENDCHAR
STARTCHAR Ccedilla
ENCODING 199
SWIDTH 714 0
DWIDTH 13 0
BBX 12 16 2 -3
BITMAP
07f0
1c30
3030
3000
6000
6000
c000
c000
c000
c000
e000
70c0
3f00
1000
0800
3800
ENDCHAR
STARTCHAR Ccaron
ENCODING 200
SWIDTH 714 0
DWIDTH 13 0
BBX 12 17 2 0
BITMAP
0420
02c0
0380
0000
07f0
1c30
3030
3000
6000
6000
c000
c000
c000
c000
e000
70c0
3f00
ENDCHAR
STARTCHAR Eacute
ENCODING 201
SWIDTH 569 0
DWIDTH 10 0
BBX 11 17 1 0
BITMAP
00c0
0100
0200
0000
3fe0
1820
1820
1800
1800
1880
1f80
3100
3000
3000
3080
3080
ff80
ENDCHAR
STARTCHAR Eogonek
ENCODING 202
SWIDTH 569 0
DWIDTH 10 0
BBX 11 16 1 -3
BITMAP
3fe0
1820
1820
1800
1800
1880
1f80
3100
3000
3000
3080
3080
ff80
0600
0800
0e00
ENDCHAR
STARTCHAR Ediaeresis
ENCODING 203
SWIDTH 569 0
DWIDTH 10 0
BBX 11 15 1 0
BITMAP
06c0
0000
3fe0
1820
1820
1800
1800
1880
1f80
3100
3000
3000
3080
3080
ff80
ENDCHAR
STARTCHAR Ecaron
ENCODING 204
SWIDTH 569 0
DWIDTH 10 0
BBX 11 17 1 0
BITMAP
0840
0580
0700
0000
3fe0
1820
1820
1800
1800
1880
1f80
3100
3000
3000
3080
3080
ff80
ENDCHAR
STARTCHAR Iacute
ENCODING 205
SWIDTH 325 0
DWIDTH 6 0
BBX 9 17 0 0
BITMAP
0180
0200
0400
0000
1f00
0c00
0c00
0c00
0800
1800
1800
1800
1000
3000
3000
3000
f800
ENDCHAR
STARTCHAR Icircumflex
ENCODING 206
SWIDTH 325 0
DWIDTH 6 0
BBX 9 17 0 0
BITMAP
0700
0d00
1080
0000
1f00
0c00
0c00
0c00
0800
1800
1800
1800
1000
3000
3000
3000
f800
ENDCHAR
STARTCHAR Dcaron
ENCODING 207
SWIDTH 770 0
DWIDTH 14 0
BBX 14 17 0 0
BITMAP
0210
0160
01c0
0000
3ff0
0c38
0c1c
080c
180c
180c
180c
180c
3018
3018
3030
30e0
ff80
ENDCHAR
STARTCHAR Dstroke
ENCODING 208
SWIDTH 770 0
DWIDTH 14 0
BBX 14 13 0 0
BITMAP
3ff0
0c38
0c1c
080c
180c
180c
7f0c
180c
1018
3018
3030
30e0
ff80
ENDCHAR
STARTCHAR Nacute
ENCODING 209
SWIDTH 762 0
DWIDTH 14 0
BBX 16 17 0 0
BITMAP
0018
0020
0040
0000
3c1f
0c04
0e04
1608
1308
1308
1188
10c8
20d0
2070
2070
2030
f020
ENDCHAR
STARTCHAR Ncaron
ENCODING 210
SWIDTH 762 0
DWIDTH 14 0
BBX 16 17 0 0
BITMAP
0108
00b0
00e0
0000
3c1f
0c04
0e04
1608
1308
1308
1188
10c8
20d0
2070
2070
2030
f020
ENDCHAR
STARTCHAR Oacute
ENCODING 211
SWIDTH 783 0
DWIDTH 14 0
BBX 13 17 2 0
BITMAP
0060
0080
0100
0000
07c0
0c70
3030
2018
6018
4018
c018
c030
c030
c060
c0c0
6180
3e00
ENDCHAR
STARTCHAR Ocircumflex
ENCODING 212
SWIDTH 783 0
DWIDTH 14 0
BBX 13 17 2 0
BITMAP
01c0
0340
0420
0000
07c0
0c70
3030
2018
6018
4018
c018
c030
c030
c060
c0c0
6180
3e00
ENDCHAR
STARTCHAR Odoubleacute
ENCODING 213
SWIDTH 783 0
DWIDTH 14 0
BBX 13 17 2 0
BITMAP
00f0
0140
0280
0000
07c0
0c70
3030
2018
6018
4018
c018
c030
c030
c060
c0c0
6180
3e00
ENDCHAR
STARTCHAR Odiaeresis
ENCODING 214
SWIDTH 783 0
DWIDTH 14 0
BBX 13 15 2 0
BITMAP
0360
0000
07c0
0c70
3030
2018
6018
4018
c018
c030
c030
c060
c0c0
6180
3e00
ENDCHAR
STARTCHAR multiply
ENCODING 215
SWIDTH 608 0
DWIDTH 11 0
BBX 12 11 1 0
BITMAP
2010
3020
1040
0880
0500
0600
0e00
1100
2080
40c0
8040
ENDCHAR
STARTCHAR Rcaron
ENCODING 216
SWIDTH 686 0
DWIDTH 12 0
BBX 12 17 0 0
BITMAP
0420
02c0
0380
0000
1fe0
0c60
0c30
0820
1860
18c0
1f00
1b00
1180
3180
30c0
30e0
f870
ENDCHAR
STARTCHAR Uring
ENCODING 217
SWIDTH 727 0
DWIDTH 13 0
BBX 13 17 3 0
BITMAP
0700
0500
0700
0000
f878
7020
6020
6020
6040
6040
4040
c040
c040
c080
c080
6100
3e00
ENDCHAR
STARTCHAR Uacute
ENCODING 218
SWIDTH 727 0
DWIDTH 13 0
BBX 13 17 3 0
BITMAP
00c0
0100
0200
0000
f878
7020
6020
6020
6040
6040
4040
c040
c040
c080
c080
6100
3e00
ENDCHAR
STARTCHAR Udoubleacute
ENCODING 219
SWIDTH 727 0
DWIDTH 13 0
BBX 13 17 3 0
BITMAP
01e0
0280
0500
0000
f878
7020
6020
6020
6040
6040
4040
c040
c040
c080
c080
6100
3e00
ENDCHAR
STARTCHAR Udiaeresis
ENCODING 220
SWIDTH 727 0
DWIDTH 13 0
BBX 13 15 3 0
BITMAP
06c0
0000
f878
7020
6020
6020
6040
6040
4040
c040
c040
c080
c080
6100
3e00
ENDCHAR
STARTCHAR Yacute
ENCODING 221
SWIDTH 663 0
DWIDTH 12 0
BBX 12 17 2 0
BITMAP
0180
0200
0400
0000
f870
6060
3040
3080
1900
1a00
1c00
0800
1800
1800
1800
3800
7c00
ENDCHAR
STARTCHAR Tcedilla
ENCODING 222
SWIDTH 663 0
DWIDTH 12 0
BBX 12 16 2 -3
BITMAP
fff0
c610
8610
0400
0c00
0c00
0c00
0c00
0800
1800
1800
1800
7e00
0600
0200
0e00
ENDCHAR
STARTCHAR ssharp
ENCODING 223
SWIDTH 603 0
DWIDTH 11 0
BBX 10 17 1 -3
BITMAP
0f00
0980
1880
1980
1100
3600
3400
3600
3300
2180
60c0
68c0
6880
4f00
4000
c000
c000
ENDCHAR
STARTCHAR racute
ENCODING 224
SWIDTH 470 0
DWIDTH 8 0
BBX 8 13 2 0
BITMAP
06
08
10
00
f3
2e
78
70
60
40
40
c0
c0
ENDCHAR
STARTCHAR aacute
ENCODING 225
SWIDTH 608 0
DWIDTH 11 0
BBX 10 13 1 0
BITMAP
00c0
0100
0200
0000
0fc0
10c0
2080
6180
4180
c380
c580
c900
73c0
ENDCHAR
STARTCHAR acircumflex
ENCODING 226
SWIDTH 608 0
DWIDTH 11 0
BBX 10 13 1 0
BITMAP
0380
0680
0840
0000
0fc0
10c0
2080
6180
4180
c380
c580
c900
73c0
ENDCHAR
STARTCHAR abreve
ENCODING 227
SWIDTH 608 0
DWIDTH 11 0
BBX 10 13 1 0
BITMAP
0840
0d80
0700
0000
0fc0
10c0
2080
6180
4180
c380
c580
c900
73c0
ENDCHAR
STARTCHAR adiaeresis
ENCODING 228
SWIDTH 608 0
DWIDTH 11 0
BBX 10 11 1 0
BITMAP
06c0
0000
0fc0
10c0
2080
6180
4180
c380
c580
c900
73c0
ENDCHAR
STARTCHAR lacute
ENCODING 229
SWIDTH 289 0
DWIDTH 5 0
BBX 7 17 1 0
BITMAP
06
08
10
00
78
18
10
30
30
30
20
60
60
60
40
c0
f0
ENDCHAR
STARTCHAR cacute
ENCODING 230
SWIDTH 487 0
DWIDTH 9 0
BBX 8 13 2 0
BITMAP
03
04
08
00
0f
31
61
40
c0
c0
c0
c2
7c
ENDCHAR
STARTCHAR ccedilla
ENCODING 231
SWIDTH 487 0
DWIDTH 9 0
BBX 8 12 2 -3
BITMAP
0f
31
61
40
c0
c0
c0
c2
7c
20
10
70
ENDCHAR
STARTCHAR ccaron
ENCODING 232
SWIDTH 487 0
DWIDTH 9 0
BBX 8 13 2 0
BITMAP
21
16
1c
00
0f
31
61
40
c0
c0
c0
c2
7c
ENDCHAR
STARTCHAR eacute
ENCODING 233
SWIDTH 518 0
DWIDTH 9 0
BBX 9 13 2 0
BITMAP
0180
0200
0400
0000
0e00
3300
6300
4200
fc00
c000
c100
e600
7c00
ENDCHAR
STARTCHAR eogonek
ENCODING 234
SWIDTH 518 0
DWIDTH 9 0
BBX 8 12 2 -3
BITMAP
0e
33
63
42
fc
c0
c1
e6
7c
18
20
38
ENDCHAR
STARTCHAR ediaeresis
ENCODING 235
SWIDTH 518 0
DWIDTH 9 0
BBX 9 11 2 0
BITMAP
0d80
0000
0e00
3300
6300
4200
fc00
c000
c100
e600
7c00
ENDCHAR
STARTCHAR ecaron
ENCODING 236
SWIDTH 518 0
DWIDTH 9 0
BBX 8 13 2 0
BITMAP
21
16
1c
00
0e
33
63
42
fc
c0
c1
e6
7c
ENDCHAR
STARTCHAR iacute
ENCODING 237
SWIDTH 289 0
DWIDTH 5 0
BBX 7 13 2 0
BITMAP
06
08
10
00
f0
30
20
60
60
60
40
c0
f0
ENDCHAR
STARTCHAR icircumflex
ENCODING 238
SWIDTH 289 0
DWIDTH 5 0
BBX 7 13 2 0
BITMAP
1c
34
42
00
f0
30
20
60
60
60
40
c0
f0
ENDCHAR
STARTCHAR dcaron
ENCODING 239
SWIDTH 833 0
DWIDTH 15 0
BBX 15 14 1 0
BITMAP
0006
01e6
0066
0044
00cc
0fc0
10c0
20c0
6080
4180
c380
c580
c900
73c0
ENDCHAR
STARTCHAR dstroke
ENCODING 240
SWIDTH 777 0
DWIDTH 14 0
BBX 14 13 1 0
BITMAP
0020
03fc
0040
00c0
0fc0
10c0
20c0
6080
4180
c380
c580
c900
73c0
ENDCHAR
STARTCHAR nacute
ENCODING 241
SWIDTH 631 0
DWIDTH 11 0
BBX 10 13 2 0
BITMAP
0300
0400
0800
0000
f380
24c0
68c0
7080
6180
6180
4180
c180
c3c0
ENDCHAR
STARTCHAR ncaron
ENCODING 242
SWIDTH 631 0
DWIDTH 11 0
BBX 10 13 2 0
BITMAP
2100
1600
1c00
0000
f380
24c0
68c0
7080
6180
6180
4180
c180
c3c0
ENDCHAR
STARTCHAR oacute
ENCODING 243
SWIDTH 560 0
DWIDTH 10 0
BBX 9 13 2 0
BITMAP
0180
0200
0400
0000
0f00
3380
6180
4180
c180
c300
c300
c600
7800
ENDCHAR
STARTCHAR ocircumflex
ENCODING 244
SWIDTH 560 0
DWIDTH 10 0
BBX 9 13 2 0
BITMAP
0700
0d00
1080
0000
0f00
3380
6180
4180
c180
c300
c300
c600
7800
ENDCHAR
STARTCHAR odoubleacute
ENCODING 245
SWIDTH 560 0
DWIDTH 10 0
BBX 10 13 2 0
BITMAP
03c0
0500
0a00
0000
0f00
3380
6180
4180
c180
c300
c300
c600
7800
ENDCHAR
STARTCHAR odiaeresis
ENCODING 246
SWIDTH 560 0
DWIDTH 10 0
BBX 9 11 2 0
BITMAP
0d80
0000
0f00
3380
6180
4180
c180
c300
c300
c600
7800
ENDCHAR
STARTCHAR division
ENCODING 247
SWIDTH 608 0
DWIDTH 11 0
BBX 11 9 1 0
BITMAP
0600
0000
0000
0000
ffe0
0000
0000
0000
0c00
ENDCHAR
STARTCHAR rcaron
ENCODING 248
SWIDTH 470 0
DWIDTH 8 0
BBX 8 13 2 0
BITMAP
42
2c
38
00
f3
2e
78
70
60
40
40
c0
c0
ENDCHAR
STARTCHAR uring
ENCODING 249
SWIDTH 630 0
DWIDTH 11 0
BBX 10 13 2 0
BITMAP
1c00
1400
1c00
0000
f3c0
60c0
6080
6180
6180
4380
c580
c900
73c0
ENDCHAR
STARTCHAR uacute
ENCODING 250
SWIDTH 630 0
DWIDTH 11 0
BBX 10 13 2 0
BITMAP
00c0
0100
0200
0000
f3c0
60c0
6080
6180
6180
4380
c580
c900
73c0
ENDCHAR
STARTCHAR udoubleacute
ENCODING 251
SWIDTH 630 0
DWIDTH 11 0
BBX 10 13 2 0
BITMAP
0780
0a00
1400
0000
f3c0
60c0
6080
6180
6180
4380
c580
c900
73c0
ENDCHAR
STARTCHAR udiaeresis
ENCODING 252
SWIDTH 630 0
DWIDTH 11 0
BBX 10 11 2 0
BITMAP
0d80
0000
f3c0
60c0
6080
6180
6180
4380
c580
c900
73c0
ENDCHAR
STARTCHAR yacute
ENCODING 253
SWIDTH 558 0
DWIDTH 10 0
BBX 11 16 0 -3
BITMAP
0060
0080
0100
0000
7060
1820
1860
0840
0c80
0d00
0e00
0c00
0800
1000
3000
e000
ENDCHAR
STARTCHAR tcedilla
ENCODING 254
SWIDTH 355 0
DWIDTH 6 0
BBX 6 15 2 -3
BITMAP
30
30
30
fc
60
60
60
40
c0
c0
c0
70
30
10
70
ENDCHAR
STARTCHAR abovedot
ENCODING 255
SWIDTH 560 0
DWIDTH 10 0
BBX 2 1 6 12
BITMAP
c0
ENDCHAR
ENDFONT
